<svg width="23" height="23" viewBox="0 0 23 23" fill="none" xmlns="http://www.w3.org/2000/svg">
<path d="M3.72902 18.0239C3.49731 18.7885 4.21148 19.5027 4.97607 19.271L9.50935 17.8971C10.2323 17.678 10.4606 16.7672 9.92643 16.233L6.76698 13.0736C6.2328 12.5394 5.32195 12.7677 5.10285 13.4906L3.72902 18.0239Z" stroke="#BCBCBC"/>
<mask id="path-2-inside-1_12_34" fill="white">
<path d="M14.5021 3.18677C15.9687 1.7201 18.3467 1.7201 19.8134 3.18677C21.28 4.65344 21.28 7.03138 19.8134 8.49805L10.5629 17.7485C10.1724 18.139 9.53923 18.139 9.14871 17.7485L5.25164 13.8514C4.86112 13.4609 4.86112 12.8277 5.25164 12.4372L14.5021 3.18677Z"/>
</mask>
<path d="M13.795 2.47966C15.6522 0.622467 18.6633 0.622467 20.5205 2.47966L20.5205 2.47966C22.3777 4.33685 22.3777 7.34796 20.5205 9.20515L19.1062 7.79094C20.1824 6.7148 20.1824 4.97002 19.1062 3.89387C18.0301 2.81773 16.2853 2.81773 15.2092 3.89387L13.795 2.47966ZM9.85581 18.4556L4.54453 13.1443L9.85581 18.4556ZM5.25164 13.8514C4.47059 13.0704 4.47059 11.804 5.25164 11.023L13.795 2.47966C15.6522 0.622467 18.6633 0.622467 20.5205 2.47966L19.1062 3.89387C18.0301 2.81773 16.2853 2.81773 15.2092 3.89387L5.95875 13.1443C5.56822 13.5348 5.25164 13.8514 5.25164 13.8514ZM20.5205 2.47966C22.3777 4.33685 22.3777 7.34796 20.5205 9.20515L11.9771 17.7485C11.1961 18.5295 9.92976 18.5295 9.14871 17.7485C9.14871 17.7485 9.46529 17.4319 9.85581 17.0414L19.1062 7.79094C20.1824 6.7148 20.1824 4.97002 19.1062 3.89387L20.5205 2.47966Z" fill="#BCBCBC" mask="url(#path-2-inside-1_12_34)"/>
<line x1="13.4558" y1="5.29531" x2="17.7049" y2="9.54433" stroke="#BCBCBC"/>
</svg>
