<svg width="18" height="18" viewBox="0 0 18 18" fill="none" xmlns="http://www.w3.org/2000/svg">
<circle cx="9" cy="9" r="9" fill="#DE532B"/>
<path d="M7.97576 4.2H10.0478L9.69776 10.752H8.31176L7.97576 4.2ZM9.01176 14.098C8.68509 14.098 8.41442 13.9953 8.19976 13.79C7.98509 13.5753 7.87776 13.314 7.87776 13.006C7.87776 12.698 7.98509 12.4413 8.19976 12.236C8.41442 12.0307 8.68509 11.928 9.01176 11.928C9.32909 11.928 9.59042 12.0307 9.79576 12.236C10.0104 12.4413 10.1178 12.698 10.1178 13.006C10.1178 13.314 10.0104 13.5753 9.79576 13.79C9.59042 13.9953 9.32909 14.098 9.01176 14.098Z" fill="white"/>
</svg>
